<svg xmlns="http://www.w3.org/2000/svg" viewBox="0 0 341.86 85.57"><defs><style>.cls-1{fill:#849bbe;}.cls-2{fill:#f2f2f2;}</style></defs><title>1Logo_Aimant</title><g id="Capa_2" data-name="Capa 2"><g id="Capa_1-2" data-name="Capa 1"><path class="cls-1" d="M54.35,60.4H45.78l-6.9-16.12H15.42L8.51,60.4H0L27.14,0ZM18.87,36.25H35.42L27.14,16.92Z"/><path class="cls-1" d="M68.75,12a5.19,5.19,0,0,1-7.62,0,5.5,5.5,0,0,1-1.61-4,5.58,5.58,0,0,1,1.61-4,5.32,5.32,0,0,1,7.62,0,5.58,5.58,0,0,1,1.61,4A5.5,5.5,0,0,1,68.75,12Zm-7.68,8.09V60.4h7.74V20.13Z"/><path class="cls-2" d="M127.8,20.13a18.41,18.41,0,0,1,13.75,5.93,19.72,19.72,0,0,1,5.66,14.21V60.4h-7.74V40.27a11.83,11.83,0,0,0-3.39-8.52,11.18,11.18,0,0,0-8.27-3.52,11,11,0,0,0-8.21,3.52,11.83,11.83,0,0,0-3.39,8.52V60.4h-7.8V40.27A11.83,11.83,0,0,0,105,31.75a11.34,11.34,0,0,0-16.43,0,11.72,11.72,0,0,0-3.45,8.52V60.4H77.38V40.27A19.72,19.72,0,0,1,83,26.06a18.94,18.94,0,0,1,29.29,2.16A18.18,18.18,0,0,1,127.8,20.13Z"/><path class="cls-2" d="M174.17,20.13a18.22,18.22,0,0,1,13.69,5.93,19.61,19.61,0,0,1,5.71,14.21V60.4H174.17a18.5,18.5,0,0,1-13.75-5.87,19.93,19.93,0,0,1-5.66-14.27,19.72,19.72,0,0,1,5.66-14.21A18.41,18.41,0,0,1,174.17,20.13Zm11.61,20.13a11.83,11.83,0,0,0-3.39-8.52,11.34,11.34,0,0,0-16.43,0,11.72,11.72,0,0,0-3.45,8.52A11.72,11.72,0,0,0,166,48.79a10.9,10.9,0,0,0,8.21,3.58h11.61Z"/><path class="cls-2" d="M219.53,20.13a18.22,18.22,0,0,1,13.69,5.93,19.61,19.61,0,0,1,5.71,14.21V60.4h-7.8V40.27a11.83,11.83,0,0,0-3.39-8.52,11.34,11.34,0,0,0-16.43,0,11.72,11.72,0,0,0-3.45,8.52V60.4h-7.74V40.27a19.72,19.72,0,0,1,5.66-14.21A18.41,18.41,0,0,1,219.53,20.13Z"/><path class="cls-2" d="M272.63,52.37v8h-7.74a18.5,18.5,0,0,1-13.75-5.87,19.93,19.93,0,0,1-5.66-14.27V0h7.74V20.13h15.54v8.09H253.22v12a11.72,11.72,0,0,0,3.45,8.52,10.9,10.9,0,0,0,8.21,3.58Z"/><path class="cls-1" d="M201.16,63.72l-2.73,16h-1.54l2.19-12.9-6.46,8.93h-.37l-3.43-8.93-2.2,12.9h-1.54l2.73-16h1.59l3.52,9.19,6.65-9.19Z"/><path class="cls-1" d="M209.9,77.7a7.52,7.52,0,0,0-.11,1.25,4.23,4.23,0,0,0,.07.8h-1.54L208.27,78h0a3.88,3.88,0,0,1-1.4,1.45,3.35,3.35,0,0,1-1.65.44,4.36,4.36,0,0,1-2.26-.58,3.88,3.88,0,0,1-1.5-1.61,5.14,5.14,0,0,1-.53-2.38,7.76,7.76,0,0,1,.8-3.37A7.25,7.25,0,0,1,204,69.21a5.31,5.31,0,0,1,3.26-1.07,2.83,2.83,0,0,1,1.56.42,2.17,2.17,0,0,1,.89,1.41l.6-1.55h1.23Zm-2.64.21a3.37,3.37,0,0,0,1.26-1.42l.87-5.11a2.12,2.12,0,0,0-.8-1.38,2.46,2.46,0,0,0-1.43-.41,3.86,3.86,0,0,0-2.43.83,5.58,5.58,0,0,0-1.65,2.1A6,6,0,0,0,202.5,75a3.64,3.64,0,0,0,.39,1.72A2.82,2.82,0,0,0,204,77.93a3.32,3.32,0,0,0,1.68.42A3.11,3.11,0,0,0,207.27,77.91Z"/><path class="cls-1" d="M220.11,68.9l-.64,1.22a3.62,3.62,0,0,0-.86-.39,4.11,4.11,0,0,0-1.07-.11,2.7,2.7,0,0,0-2.08.84,5.45,5.45,0,0,0-1.1,2.8l-1.11,6.5h-1.54l1.93-11.34h.92l.29,1.75A3.58,3.58,0,0,1,216,68.72a3.25,3.25,0,0,1,1.77-.43A4,4,0,0,1,220.11,68.9Z"/><path class="cls-1" d="M223.32,73.45l4,6.3h-2.12L222,74.7l-.85,5.05h-1.54l2.8-16.51,1.59-.32-1.57,9.26,4.38-3.77h2.31Z"/><path class="cls-1" d="M238.09,68.86a4.27,4.27,0,0,1,1.56,1.67,5,5,0,0,1,.56,2.37,8.41,8.41,0,0,1-.11,1.27l-.07.43h-9.18q0,.12,0,.35a3.73,3.73,0,0,0,.48,1.88,3.52,3.52,0,0,0,1.3,1.33,3.59,3.59,0,0,0,1.85.48,4.94,4.94,0,0,0,1.9-.42,5.07,5.07,0,0,0,1.63-1l.84.92a6.82,6.82,0,0,1-2.16,1.35,6.51,6.51,0,0,1-2.44.53,5.12,5.12,0,0,1-2.52-.62,4.62,4.62,0,0,1-1.78-1.72,4.69,4.69,0,0,1-.65-2.44,7.32,7.32,0,0,1,.86-3.54,6.38,6.38,0,0,1,5.72-3.4A4.15,4.15,0,0,1,238.09,68.86ZM233.62,70a4.73,4.73,0,0,0-1.6,1.29,5.23,5.23,0,0,0-1,1.92h7.64a4.78,4.78,0,0,0,.05-.69,2.92,2.92,0,0,0-.41-1.52A2.89,2.89,0,0,0,237.23,70a3.23,3.23,0,0,0-1.58-.39A4.49,4.49,0,0,0,233.62,70Z"/><path class="cls-1" d="M244.79,75.56a5.61,5.61,0,0,0-.09,1,2.13,2.13,0,0,0,.34,1.3,1.16,1.16,0,0,0,1,.45,1.93,1.93,0,0,0,.8-.18l-.27,1.55a5.1,5.1,0,0,1-1.32.23,2,2,0,0,1-1.61-.68,3,3,0,0,1-.55-2,7.77,7.77,0,0,1,.12-1.31l1.06-6.21h-2.05l.23-1.33h2.05l.65-3.84,1.59-.32L246,68.39h2.58l-.23,1.33h-2.58Z"/><path class="cls-1" d="M249.71,79.21a3,3,0,0,1-.55-2,7.81,7.81,0,0,1,.12-1.32l1.27-7.52h1.54l-1.21,7.15a5.61,5.61,0,0,0-.09,1,2.13,2.13,0,0,0,.34,1.3,1.16,1.16,0,0,0,1,.45,1.93,1.93,0,0,0,.8-.18l-.27,1.55a5.12,5.12,0,0,1-1.34.23A2,2,0,0,1,249.71,79.21ZM251,64.9h1.82l-.32,1.89H250.7Z"/><path class="cls-1" d="M263.45,69.2a3.88,3.88,0,0,1,.87,2.78,11.59,11.59,0,0,1-.17,1.87l-1,5.9H261.6l1-5.9a9.23,9.23,0,0,0,.14-1.48,2.91,2.91,0,0,0-.59-2,2.23,2.23,0,0,0-1.76-.66,2.6,2.6,0,0,0-1.76.69,5.39,5.39,0,0,0-1.32,1.85,10.25,10.25,0,0,0-.76,2.58l-.84,4.9h-1.54l1.92-11.3h1.13l0,2.38A7.34,7.34,0,0,1,258.83,69a3.15,3.15,0,0,1,2-.71A3.51,3.51,0,0,1,263.45,69.2Z"/><path class="cls-1" d="M266.25,85.11a5.67,5.67,0,0,1-1.87-1.31l1-1.27a4.44,4.44,0,0,0,1.5,1.18,4.18,4.18,0,0,0,1.84.42,3.27,3.27,0,0,0,2.66-1.37,8.75,8.75,0,0,0,1.52-3.94l.1-.67a4.16,4.16,0,0,1-1.49,1.32,3.81,3.81,0,0,1-1.73.43,4.21,4.21,0,0,1-2.25-.62,4.35,4.35,0,0,1-1.58-1.69,5,5,0,0,1-.58-2.41,7.89,7.89,0,0,1,.8-3.58,6.31,6.31,0,0,1,2.2-2.52,5.59,5.59,0,0,1,3.13-.92,3.35,3.35,0,0,1,1.83.51A2.73,2.73,0,0,1,274.45,70l.72-1.58h1l-1.77,10.4a11.91,11.91,0,0,1-1.19,3.67,6.1,6.1,0,0,1-2,2.29,5,5,0,0,1-2.76.78A5.5,5.5,0,0,1,266.25,85.11ZM271.84,78a4.85,4.85,0,0,0,1.41-1.33l.92-5.45a2.64,2.64,0,0,0-1-1.17,2.91,2.91,0,0,0-1.59-.44,4.19,4.19,0,0,0-2.36.71,4.91,4.91,0,0,0-1.68,1.95A6.08,6.08,0,0,0,266.9,75a3.59,3.59,0,0,0,.44,1.77,3.28,3.28,0,0,0,1.2,1.25,3.18,3.18,0,0,0,1.67.45A3.11,3.11,0,0,0,271.84,78Z"/><path class="cls-1" d="M294.64,65.13a5.52,5.52,0,0,1,1.54,4.27,14.25,14.25,0,0,1-.23,2.43,10,10,0,0,1-2.83,6,8.4,8.4,0,0,1-5.87,2h-4.88l2.73-16H290A6.7,6.7,0,0,1,294.64,65.13Zm0,4.59a4.67,4.67,0,0,0-1.2-3.51,5.1,5.1,0,0,0-3.66-1.16h-3.35l-2.26,13.36h3.33a6.48,6.48,0,0,0,4.65-1.63,8.69,8.69,0,0,0,2.29-5A12.27,12.27,0,0,0,294.62,69.72Z"/><path class="cls-1" d="M297.36,79.21a3,3,0,0,1-.55-2,7.81,7.81,0,0,1,.12-1.32l1.27-7.52h1.54l-1.21,7.15a5.61,5.61,0,0,0-.09,1,2.13,2.13,0,0,0,.34,1.3,1.16,1.16,0,0,0,1,.45,1.93,1.93,0,0,0,.8-.18l-.27,1.55a5.12,5.12,0,0,1-1.34.23A2,2,0,0,1,297.36,79.21Zm1.31-14.3h1.82l-.32,1.89h-1.82Z"/><path class="cls-1" d="M303.07,85.11a5.67,5.67,0,0,1-1.87-1.31l1-1.27a4.44,4.44,0,0,0,1.5,1.18,4.18,4.18,0,0,0,1.84.42,3.27,3.27,0,0,0,2.66-1.37,8.75,8.75,0,0,0,1.52-3.94l.1-.67a4.16,4.16,0,0,1-1.49,1.32,3.81,3.81,0,0,1-1.73.43,4.21,4.21,0,0,1-2.25-.62,4.35,4.35,0,0,1-1.58-1.69,5,5,0,0,1-.58-2.41,7.89,7.89,0,0,1,.8-3.58,6.31,6.31,0,0,1,2.2-2.52,5.59,5.59,0,0,1,3.13-.92,3.35,3.35,0,0,1,1.83.51A2.73,2.73,0,0,1,311.28,70l.72-1.58h1l-1.77,10.4a11.91,11.91,0,0,1-1.19,3.67,6.1,6.1,0,0,1-2,2.29,5,5,0,0,1-2.76.78A5.5,5.5,0,0,1,303.07,85.11ZM308.67,78a4.85,4.85,0,0,0,1.41-1.33L311,71.2A2.64,2.64,0,0,0,310,70a2.91,2.91,0,0,0-1.59-.44,4.19,4.19,0,0,0-2.36.71,4.91,4.91,0,0,0-1.68,1.95,6.08,6.08,0,0,0-.62,2.75,3.59,3.59,0,0,0,.44,1.77,3.28,3.28,0,0,0,1.2,1.25,3.18,3.18,0,0,0,1.67.45A3.11,3.11,0,0,0,308.67,78Z"/><path class="cls-1" d="M314.16,79.21a3,3,0,0,1-.55-2,7.81,7.81,0,0,1,.12-1.32L315,68.41h1.54l-1.21,7.15a5.61,5.61,0,0,0-.09,1,2.13,2.13,0,0,0,.34,1.3,1.16,1.16,0,0,0,1,.45,1.93,1.93,0,0,0,.8-.18l-.27,1.55a5.12,5.12,0,0,1-1.34.23A2,2,0,0,1,314.16,79.21Zm1.31-14.3h1.82L317,66.79h-1.82Z"/><path class="cls-1" d="M322.32,75.56a5.61,5.61,0,0,0-.09,1,2.13,2.13,0,0,0,.34,1.3,1.16,1.16,0,0,0,1,.45,1.93,1.93,0,0,0,.8-.18l-.27,1.55a5.1,5.1,0,0,1-1.32.23,2,2,0,0,1-1.61-.68,3,3,0,0,1-.55-2,7.77,7.77,0,0,1,.12-1.31l1.06-6.21h-2.05l.23-1.33H322l.65-3.84,1.59-.32-.71,4.16h2.58l-.23,1.33h-2.58Z"/><path class="cls-1" d="M335.65,77.7a7.52,7.52,0,0,0-.11,1.25,4.23,4.23,0,0,0,.07.8h-1.54L334,78h0a3.88,3.88,0,0,1-1.4,1.45,3.35,3.35,0,0,1-1.65.44,4.36,4.36,0,0,1-2.26-.58,3.88,3.88,0,0,1-1.5-1.61,5.14,5.14,0,0,1-.53-2.38,7.76,7.76,0,0,1,.8-3.37,7.25,7.25,0,0,1,2.23-2.74A5.31,5.31,0,0,1,333,68.14a2.83,2.83,0,0,1,1.56.42,2.17,2.17,0,0,1,.89,1.41l.6-1.55h1.23Zm-2.64.21a3.37,3.37,0,0,0,1.26-1.42l.87-5.11a2.12,2.12,0,0,0-.8-1.38,2.46,2.46,0,0,0-1.43-.41,3.86,3.86,0,0,0-2.43.83,5.58,5.58,0,0,0-1.65,2.1,6,6,0,0,0-.59,2.53,3.64,3.64,0,0,0,.39,1.72,2.82,2.82,0,0,0,1.11,1.16,3.32,3.32,0,0,0,1.68.42A3.11,3.11,0,0,0,333,77.91Z"/><path class="cls-1" d="M338.54,79.2a3,3,0,0,1-.55-2,7.77,7.77,0,0,1,.12-1.31l2.16-12.69,1.59-.32-2.15,12.64a5.61,5.61,0,0,0-.09,1,2.13,2.13,0,0,0,.34,1.3,1.16,1.16,0,0,0,1,.45,1.93,1.93,0,0,0,.8-.18l-.26,1.55a5.3,5.3,0,0,1-1.34.23A2,2,0,0,1,338.54,79.2Z"/></g></g></svg>