<svg xmlns="http://www.w3.org/2000/svg" viewBox="0 0 632.98 400.24"><defs><style>.cls-1{isolation:isolate;}.cls-2{fill:#4d84c4;}.cls-3{fill:#223a5d;}.cls-4,.cls-6{fill:#93b3d7;}.cls-4{opacity:0.8;mix-blend-mode:multiply;}.cls-5{fill:#f2f2f2;opacity:0.3;mix-blend-mode:soft-light;}</style></defs><title>3Isologo color</title><g class="cls-1"><g id="Capa_2" data-name="Capa 2"><g id="Capa_1-2" data-name="Capa 1"><g id="Aimant_Transpa_-_Color" data-name="Aimant Transpa - Color"><g id="Aimant_Transpa_-_Color-2" data-name="Aimant Transpa - Color"><path class="cls-2" d="M100.61,353.58H84.74L72,324.84H28.54L15.76,353.58H0l50.25-107.7ZM34.93,310.52H65.57L50.25,276.05Z"/><path class="cls-2" d="M127.27,267.35a9.85,9.85,0,0,1-14.1,0,9.63,9.63,0,0,1-3-7,9.76,9.76,0,0,1,3-7.16,10.12,10.12,0,0,1,14.1,0,9.76,9.76,0,0,1,3,7.16A9.63,9.63,0,0,1,127.27,267.35Zm-14.21,14.43v71.8h14.33v-71.8Z"/><path class="cls-3" d="M236.59,281.78a35.92,35.92,0,0,1,35.92,35.9v35.9H258.18v-35.9a20.69,20.69,0,0,0-6.28-15.2,21.09,21.09,0,0,0-15.32-6.28,21.44,21.44,0,0,0-21.49,21.47v35.9H200.66v-35.9A21.51,21.51,0,0,0,164,302.48a20.51,20.51,0,0,0-6.39,15.2v35.9H143.25v-35.9a35.92,35.92,0,0,1,35.92-35.9q18,0,28.76,14.43Q218.73,281.78,236.59,281.78Z"/><path class="cls-3" d="M322.43,281.78a36.11,36.11,0,0,1,35.92,35.9v35.9H322.43a35.73,35.73,0,0,1-35.92-35.9,35.92,35.92,0,0,1,35.92-35.9Zm21.49,35.9a21.43,21.43,0,1,0-21.49,21.58h21.49Z"/><path class="cls-3" d="M406.39,281.78a36.11,36.11,0,0,1,35.92,35.9v35.9H427.88v-35.9a21.54,21.54,0,0,0-43.09,0v35.9H370.47v-35.9a35.92,35.92,0,0,1,35.92-35.9Z"/><path class="cls-3" d="M504.69,339.26v14.32H490.36a35.73,35.73,0,0,1-35.92-35.9v-71.8h14.33v35.9h28.76V296.2H468.76v21.47a21.82,21.82,0,0,0,21.6,21.58Z"/><path class="cls-2" d="M372.52,361.29l-5.06,28.58h-2.85l4.05-23-12,15.93H356l-6.35-15.93-4.07,23h-2.85l5.06-28.58h2.95l6.52,16.38,12.3-16.38Z"/><path class="cls-2" d="M388.7,386.22a12.88,12.88,0,0,0-.21,2.22,7.18,7.18,0,0,0,.13,1.42h-2.85l-.09-3.12v0a7,7,0,0,1-2.6,2.59,6.38,6.38,0,0,1-3.05.79,8.31,8.31,0,0,1-4.19-1,7,7,0,0,1-2.78-2.87,8.89,8.89,0,0,1-1-4.24,13.42,13.42,0,0,1,1.47-6,13,13,0,0,1,4.14-4.88,10.09,10.09,0,0,1,6-1.91,5.4,5.4,0,0,1,2.88.74,3.87,3.87,0,0,1,1.65,2.51l1.1-2.76h2.28Zm-4.88.37a6.09,6.09,0,0,0,2.33-2.54l1.62-9.1a3.76,3.76,0,0,0-1.48-2.46,4.67,4.67,0,0,0-2.64-.73,7.32,7.32,0,0,0-4.51,1.48,10,10,0,0,0-3.06,3.74,10.34,10.34,0,0,0-1.08,4.5,6.31,6.31,0,0,0,.72,3.06,5.12,5.12,0,0,0,2.06,2.07,6.33,6.33,0,0,0,3.11.74A5.93,5.93,0,0,0,383.82,386.59Z"/><path class="cls-2" d="M407.6,370.52l-1.18,2.17a6.84,6.84,0,0,0-1.59-.69,7.88,7.88,0,0,0-2-.2,5.1,5.1,0,0,0-3.85,1.49,9.53,9.53,0,0,0-2,5l-2.05,11.59H392l3.57-20.22h1.71l.53,3.12a6.44,6.44,0,0,1,2.21-2.56,6.19,6.19,0,0,1,3.27-.77A7.64,7.64,0,0,1,407.6,370.52Z"/><path class="cls-2" d="M413.53,378.64l7.38,11.23H417l-5.89-9-1.58,9h-2.85l5.19-29.44,2.95-.57-2.91,16.51,8.1-6.73h4.28Z"/><path class="cls-2" d="M440.87,370.45a7.74,7.74,0,0,1,2.88,3,8.58,8.58,0,0,1,1,4.23,14.38,14.38,0,0,1-.21,2.26l-.13.76h-17q0,.21,0,.63a6.44,6.44,0,0,0,3.3,5.71,6.85,6.85,0,0,0,3.43.86,10.42,10.42,0,0,0,6.54-2.6l1.56,1.63a12.7,12.7,0,0,1-4,2.4,12.44,12.44,0,0,1-4.52.94,9.76,9.76,0,0,1-4.66-1.11,8.41,8.41,0,0,1-3.29-3.06,8.13,8.13,0,0,1-1.2-4.34,12.67,12.67,0,0,1,1.59-6.31,11.6,11.6,0,0,1,4.37-4.45,12.15,12.15,0,0,1,6.21-1.61A7.91,7.91,0,0,1,440.87,370.45Zm-8.26,2.12a8.71,8.71,0,0,0-3,2.31,9.21,9.21,0,0,0-1.79,3.42H442a8.22,8.22,0,0,0,.1-1.23,5.07,5.07,0,0,0-.75-2.72,5.27,5.27,0,0,0-2.06-1.91,6.17,6.17,0,0,0-2.93-.69A8.58,8.58,0,0,0,432.61,372.56Z"/><path class="cls-2" d="M453.28,382.4a9.62,9.62,0,0,0-.17,1.73,3.69,3.69,0,0,0,.63,2.32,2.18,2.18,0,0,0,1.83.8,3.69,3.69,0,0,0,1.48-.32l-.49,2.76a9.76,9.76,0,0,1-2.45.42,3.7,3.7,0,0,1-3-1.21,5.24,5.24,0,0,1-1-3.49,13.34,13.34,0,0,1,.23-2.34l2-11.08h-3.8l.42-2.37h3.8l1.2-6.84,2.95-.57-1.31,7.41h4.77l-.42,2.37H455.1Z"/><path class="cls-2" d="M462.39,388.9a5.23,5.23,0,0,1-1-3.48,13.42,13.42,0,0,1,.23-2.36L464,369.65h2.85l-2.24,12.75a9.54,9.54,0,0,0-.17,1.73,3.68,3.68,0,0,0,.63,2.32,2.18,2.18,0,0,0,1.83.8,3.68,3.68,0,0,0,1.48-.32l-.49,2.76a9.81,9.81,0,0,1-2.47.42A3.69,3.69,0,0,1,462.39,388.9Zm2.42-25.5h3.37l-.59,3.36h-3.37Z"/><path class="cls-2" d="M487.83,371.06a6.76,6.76,0,0,1,1.62,4.95,20,20,0,0,1-.32,3.33l-1.86,10.53h-2.85l1.86-10.53a15.86,15.86,0,0,0,.27-2.64,5.06,5.06,0,0,0-1.08-3.54A4.22,4.22,0,0,0,482.2,372a4.92,4.92,0,0,0-3.25,1.24,9.63,9.63,0,0,0-2.44,3.31,17.84,17.84,0,0,0-1.42,4.6l-1.56,8.74h-2.85l3.56-20.14h2.09l-.08,4.24a13.26,13.26,0,0,1,3-3.25,6,6,0,0,1,3.64-1.27A6.65,6.65,0,0,1,487.83,371.06Z"/><path class="cls-2" d="M493,399.43a10.51,10.51,0,0,1-3.46-2.34l1.84-2.26a8.17,8.17,0,0,0,2.78,2.11,8,8,0,0,0,3.4.74,6.12,6.12,0,0,0,4.92-2.45,15.28,15.28,0,0,0,2.81-7l.19-1.2a7.64,7.64,0,0,1-2.77,2.36,7.27,7.27,0,0,1-3.2.76,8,8,0,0,1-4.16-1.1,7.89,7.89,0,0,1-2.93-3,8.7,8.7,0,0,1-1.06-4.29,13.64,13.64,0,0,1,1.48-6.38,11.38,11.38,0,0,1,4.08-4.49,10.64,10.64,0,0,1,5.79-1.63,6.38,6.38,0,0,1,3.39.91,4.91,4.91,0,0,1,2.08,2.38l1.33-2.81h1.9l-3.27,18.55a20.68,20.68,0,0,1-2.2,6.55,11,11,0,0,1-3.77,4.09,9.5,9.5,0,0,1-5.11,1.4A10.51,10.51,0,0,1,493,399.43Zm10.35-12.71a8.83,8.83,0,0,0,2.61-2.37l1.71-9.71a4.76,4.76,0,0,0-1.88-2.09,5.54,5.54,0,0,0-2.95-.78,8,8,0,0,0-4.37,1.26,8.85,8.85,0,0,0-3.12,3.47,10.51,10.51,0,0,0-1.14,4.9,6.23,6.23,0,0,0,.82,3.15,6,6,0,0,0,2.22,2.23,6.06,6.06,0,0,0,3.09.81A5.91,5.91,0,0,0,503.35,386.71Z"/><path class="cls-2" d="M545.57,363.79q2.84,2.51,2.84,7.62a24.49,24.49,0,0,1-.42,4.33q-1.26,7.15-5.24,10.63t-10.87,3.49h-9l5.06-28.58h9Q542.73,361.29,545.57,363.79Zm0,8.19q0-4.2-2.23-6.26t-6.77-2.06h-6.2l-4.18,23.83h6.16q5.44,0,8.61-2.91t4.24-8.86A21.07,21.07,0,0,0,545.52,372Z"/><path class="cls-2" d="M550.59,388.9a5.23,5.23,0,0,1-1-3.48,13.42,13.42,0,0,1,.23-2.36l2.36-13.42H555l-2.24,12.75a9.54,9.54,0,0,0-.17,1.73,3.68,3.68,0,0,0,.63,2.32,2.18,2.18,0,0,0,1.83.8,3.68,3.68,0,0,0,1.48-.32l-.49,2.76a9.81,9.81,0,0,1-2.47.42A3.69,3.69,0,0,1,550.59,388.9ZM553,363.4h3.37l-.59,3.36h-3.37Z"/><path class="cls-2" d="M561.17,399.43a10.51,10.51,0,0,1-3.46-2.34l1.84-2.26a8.17,8.17,0,0,0,2.78,2.11,8,8,0,0,0,3.4.74,6.12,6.12,0,0,0,4.92-2.45,15.28,15.28,0,0,0,2.81-7l.19-1.2a7.64,7.64,0,0,1-2.77,2.36,7.27,7.27,0,0,1-3.2.76,8,8,0,0,1-4.16-1.1,7.89,7.89,0,0,1-2.93-3,8.7,8.7,0,0,1-1.06-4.29,13.64,13.64,0,0,1,1.48-6.38,11.38,11.38,0,0,1,4.08-4.49,10.64,10.64,0,0,1,5.79-1.63,6.38,6.38,0,0,1,3.39.91,4.91,4.91,0,0,1,2.08,2.38l1.33-2.81h1.9l-3.27,18.55a20.68,20.68,0,0,1-2.2,6.55,11,11,0,0,1-3.77,4.09,9.5,9.5,0,0,1-5.11,1.4A10.51,10.51,0,0,1,561.17,399.43Zm10.35-12.71a8.83,8.83,0,0,0,2.61-2.37l1.71-9.71a4.76,4.76,0,0,0-1.88-2.09,5.54,5.54,0,0,0-2.95-.78,8,8,0,0,0-4.37,1.26,8.85,8.85,0,0,0-3.12,3.47,10.51,10.51,0,0,0-1.14,4.9,6.23,6.23,0,0,0,.82,3.15,6,6,0,0,0,2.22,2.23,6.06,6.06,0,0,0,3.09.81A5.91,5.91,0,0,0,571.53,386.71Z"/><path class="cls-2" d="M581.7,388.9a5.23,5.23,0,0,1-1-3.48,13.42,13.42,0,0,1,.23-2.36l2.36-13.42h2.85l-2.24,12.75a9.54,9.54,0,0,0-.17,1.73,3.68,3.68,0,0,0,.63,2.32,2.18,2.18,0,0,0,1.83.8,3.68,3.68,0,0,0,1.48-.32l-.49,2.76a9.81,9.81,0,0,1-2.47.42A3.69,3.69,0,0,1,581.7,388.9Zm2.42-25.5h3.37l-.59,3.36h-3.37Z"/><path class="cls-2" d="M596.81,382.4a9.62,9.62,0,0,0-.17,1.73,3.69,3.69,0,0,0,.63,2.32,2.18,2.18,0,0,0,1.83.8,3.69,3.69,0,0,0,1.48-.32l-.49,2.76a9.76,9.76,0,0,1-2.45.42,3.7,3.7,0,0,1-3-1.21,5.24,5.24,0,0,1-1-3.49,13.34,13.34,0,0,1,.23-2.34l2-11.08H592l.42-2.37h3.8l1.2-6.84,2.95-.57-1.31,7.41h4.77l-.42,2.37h-4.77Z"/><path class="cls-2" d="M621.49,386.22a12.88,12.88,0,0,0-.21,2.22,7.18,7.18,0,0,0,.13,1.42h-2.85l-.09-3.12v0a7,7,0,0,1-2.6,2.59,6.38,6.38,0,0,1-3.05.79,8.31,8.31,0,0,1-4.19-1,7,7,0,0,1-2.78-2.87,8.89,8.89,0,0,1-1-4.24,13.42,13.42,0,0,1,1.47-6,13,13,0,0,1,4.14-4.88,10.09,10.09,0,0,1,6-1.91,5.4,5.4,0,0,1,2.88.74,3.87,3.87,0,0,1,1.65,2.51l1.1-2.76h2.28Zm-4.88.37a6.09,6.09,0,0,0,2.33-2.54l1.62-9.1a3.76,3.76,0,0,0-1.48-2.46,4.67,4.67,0,0,0-2.64-.73,7.32,7.32,0,0,0-4.51,1.48,10,10,0,0,0-3.06,3.74,10.34,10.34,0,0,0-1.08,4.5,6.31,6.31,0,0,0,.72,3.06,5.12,5.12,0,0,0,2.06,2.07,6.33,6.33,0,0,0,3.11.74A5.93,5.93,0,0,0,616.61,386.59Z"/><path class="cls-2" d="M626.83,388.89a5.24,5.24,0,0,1-1-3.49,13.34,13.34,0,0,1,.23-2.34l4-22.63,2.95-.57-4,22.54a9.62,9.62,0,0,0-.17,1.73,3.69,3.69,0,0,0,.63,2.32,2.18,2.18,0,0,0,1.83.8,3.69,3.69,0,0,0,1.48-.32l-.47,2.76a10.17,10.17,0,0,1-2.47.42A3.7,3.7,0,0,1,626.83,388.89Z"/><path class="cls-3" d="M381.59,62.71a84.56,84.56,0,1,0-59.78,103.56A84.6,84.6,0,0,0,381.59,62.71Zm-58.5,50.65-.17,0a.5.5,0,0,1-.6-.33c-1.49-4.5-4.23-10.71-10.76-12.58a15.52,15.52,0,0,0-14,3.74c-3.52,3.64-4.47,8.81-3,16.27a.5.5,0,0,1-.36.58l-.2.05-.13,0a.5.5,0,0,1-.48-.37,53.5,53.5,0,0,1-1.2-5.49c-1-6.78.22-12,3.63-15.54a15,15,0,0,1,6.7-3.79l.67-.18a15,15,0,0,1,7.57,0c4.72,1.35,8.4,5.27,10.92,11.64a47.93,47.93,0,0,1,1.71,5.36A.5.5,0,0,1,323.09,113.36Zm4.8-1.29a.55.55,0,0,1-.66-.34c-2.39-8.65-6.1-17.86-15.58-20.58a20.88,20.88,0,0,0-18.79,5c-4.76,4.93-5.81,13.55-3.12,25.6a.5.5,0,0,1-.36.59l-.18,0-.13,0a.5.5,0,0,1-.48-.37c-.63-2.29-2.15-8-2.61-11-1.33-9,.29-15.93,4.8-20.6a19.89,19.89,0,0,1,8.87-5l.89-.24a19.86,19.86,0,0,1,10-.05c6.25,1.79,11.12,7,14.47,15.44a81.63,81.63,0,0,1,3.22,10.89A.5.5,0,0,1,327.89,112.08Zm5.68-1.52a.5.5,0,0,1-.61-.35l-1.25-4.68c-1.37-5.11-3.4-11.68-6.92-17.14l0,0-.5-.75-.28-.4-.35-.49-.39-.51-.27-.34-.53-.64-.16-.19-.64-.71-.08-.09a22.4,22.4,0,0,0-10.44-6.43,27.23,27.23,0,0,0-24.51,6.56c-6.86,7.1-7.9,19.23-3.19,37.1l.4,1.48.11.39a.5.5,0,0,1-.35.61l-.14,0a.5.5,0,0,1-.48-.36l-.58-1.93c-.76-2.46-3.68-12.8-4.44-18-1.72-11.62.37-20.57,6.19-26.59a25.65,25.65,0,0,1,11.44-6.46l1.15-.31a25.6,25.6,0,0,1,12.92-.07c8.06,2.31,14.34,9,18.67,19.94a111.18,111.18,0,0,1,4.3,14.67l.1.41c.08.32,1.18,4.51,1.21,4.63h0A.5.5,0,0,1,333.56,110.56Zm32.79.5a.5.5,0,0,1-.61-.35l-.79-3C358,81.65,347,53.87,318.89,45.82c-8.64-2.47-19.06-2.28-29.33.55-10.32,2.68-19.44,7.72-25.68,14.18-20.28,21-15.3,52.41-8.7,77.45l.58,2.17a.5.5,0,0,1-.34.61l-.14,0a.5.5,0,0,1-.47-.34l-.75-2.32c-.06-.21-6.38-20.83-8.37-34.32-3.78-25.59.79-45.27,13.58-58.5,6.09-6.3,15-11.33,25.11-14.17l2.54-.67c10-2.47,20.07-2.53,28.35-.16,17.7,5.07,31.5,19.83,41,43.88,4.42,11.16,7.49,24,9.52,32.5l.21.9.7,2.88A.5.5,0,0,1,366.36,111.06Z"/><path class="cls-4" d="M325.52,87.9l-.54-.81-.38-.54-.27-.37-.46-.6-.23-.29-.55-.66-.16-.2-.66-.74-.08-.09a23.69,23.69,0,0,0-10.89-6.7,28.21,28.21,0,0,0-25.51,6.83c-7.12,7.37-8.25,19.82-3.44,38l.39,1.47a.5.5,0,0,0,.48.37h.09a.5.5,0,0,0,.4-.54c-.16-1.51-.32-2.92-.47-4.25-1-8.48-1.55-13.6-.31-20.93,1.49-8.89,10.41-17.8,24.53-17.63,7.45.09,13.51,4.55,17.28,8.27a.5.5,0,0,0,.77-.63Z"/><path class="cls-3" d="M276.52,208.88a18.8,18.8,0,0,0,7.58,1.6q.56,0,1.12,0a18.78,18.78,0,0,0,8.45-2.6,20,20,0,0,0,6.32-6,21.54,21.54,0,0,0,3.4-16.06.5.5,0,0,0-1,.06,24.44,24.44,0,0,1-5.31,13.81,16.65,16.65,0,0,1-24.93,1.5,24.17,24.17,0,0,1-6.94-13.07.48.48,0,0,0-.52-.4.5.5,0,0,0-.47.46,21.51,21.51,0,0,0,5.3,15.54A20,20,0,0,0,276.52,208.88Z"/><path class="cls-3" d="M276,227.87a23.15,23.15,0,0,0,9.16,1.89q.62,0,1.25,0a23.13,23.13,0,0,0,10.11-3.1,24.57,24.57,0,0,0,7.63-7.09,26.18,26.18,0,0,0,4.38-19.34.5.5,0,0,0-1,.06,29.3,29.3,0,0,1-6.29,17.09,20.62,20.62,0,0,1-31.05,1.87,29.33,29.33,0,0,1-8.31-16.2.48.48,0,0,0-.52-.41.5.5,0,0,0-.47.47,26.14,26.14,0,0,0,6.67,18.67A24.61,24.61,0,0,0,276,227.87Z"/><path class="cls-3" d="M313.12,214.35a.5.5,0,0,0-.47.48A33.29,33.29,0,0,1,305.31,235a24.86,24.86,0,0,1-37.08,2.23,33.33,33.33,0,0,1-9.71-19.11.48.48,0,0,0-.52-.42.5.5,0,0,0-.47.48,30.38,30.38,0,0,0,8.11,21.61,28.82,28.82,0,0,0,9.87,7A27.31,27.31,0,0,0,286,248.84q.75,0,1.51,0a27.31,27.31,0,0,0,11.7-3.5,28.81,28.81,0,0,0,9-8.09,30.41,30.41,0,0,0,5.46-22.43A.49.49,0,0,0,313.12,214.35Z"/><path class="cls-3" d="M361.65,182.42a16,16,0,0,0,6,1.18l.82,0a15,15,0,0,0,11.89-6.94,16,16,0,0,0,2.36-6.54,17.25,17.25,0,0,0-3.38-12.71.5.5,0,0,0-.86.5,19.35,19.35,0,0,1,1.18,11.65,13.15,13.15,0,0,1-17,9.94,19.15,19.15,0,0,1-9.57-6.76.5.5,0,0,0-.85.5A17.24,17.24,0,0,0,361.65,182.42Z"/><path class="cls-3" d="M366.72,195.93a19.54,19.54,0,0,0,7.24,1.36l1,0a18,18,0,0,0,14.21-8.3,19.64,19.64,0,0,0,2.88-7.81,20.94,20.94,0,0,0-3.86-15.39.5.5,0,0,0-.86.5A23.21,23.21,0,0,1,389,180.6,16.3,16.3,0,0,1,367.74,193a23.26,23.26,0,0,1-11.67-8.49.5.5,0,0,0-.86.5A20.92,20.92,0,0,0,366.72,195.93Z"/><path class="cls-3" d="M397.08,174.29a.5.5,0,0,0-.86.5,26.38,26.38,0,0,1,2,16.87,19.68,19.68,0,0,1-25.41,14.82,26.45,26.45,0,0,1-13.71-10,.5.5,0,0,0-.86.5,24.29,24.29,0,0,0,13.58,12.49,22.87,22.87,0,0,0,8.09,1.45q.73,0,1.46,0a21.37,21.37,0,0,0,16.42-9.59,23,23,0,0,0,3.47-9A24.3,24.3,0,0,0,397.08,174.29Z"/><path class="cls-2" d="M259.81,154.82l5.36,20c2.35,8.78,10.85,14.14,19,12S297,175.71,294.6,166.93l-5.32-19.84a33.59,33.59,0,0,0-29.47,7.73Z"/><path class="cls-5" d="M284.1,146.49c4.67,16,4.88,30.12,1.72,39.84,7.11-2.85,11-11.12,8.83-19.29l-5.32-19.84A33.65,33.65,0,0,0,284.1,146.49Z"/><path class="cls-6" d="M266.31,177.9c2,5,5.27,10,10.74,11.55a14.64,14.64,0,0,0,7.41,0l.67-.18a14.69,14.69,0,0,0,6.55-3.71c4-4.11,4.32-10,3.52-15.37A77.45,77.45,0,0,0,293,161.1l-.2-.61.15.57c1.8,6.83,3,15.08-2.3,20.62A16.14,16.14,0,0,1,276,185.6c-7.49-2.16-10.41-9.63-12.26-16.5l-.21-.78.19.76A67.18,67.18,0,0,0,266.31,177.9Z"/><path class="cls-6" d="M341.06,133.07l5.36,20c2.35,8.78,10.85,14.14,19,12S378.2,154,375.85,145.18l-5.32-19.84a33.59,33.59,0,0,0-29.47,7.73Z"/><path class="cls-5" d="M365.33,124.73c4.67,16,4.88,30.12,1.72,39.84,7.11-2.85,11-11.12,8.83-19.29l-5.32-19.84A33.65,33.65,0,0,0,365.33,124.73Z"/><path class="cls-2" d="M347.59,156.28c2,5,5.27,10,10.74,11.55a14.64,14.64,0,0,0,7.41,0l.67-.18a14.69,14.69,0,0,0,6.55-3.71c4-4.11,4.32-10,3.52-15.37a77.45,77.45,0,0,0-2.21-9.07l-.2-.61.15.57c1.8,6.83,3,15.08-2.3,20.62A16.14,16.14,0,0,1,357.3,164c-7.49-2.16-10.41-9.63-12.26-16.5l-.21-.78.19.76A67.18,67.18,0,0,0,347.59,156.28Z"/></g></g></g></g></g></svg>