<!-- Generator: Adobe Illustrator 21.1.0, SVG Export Plug-In  -->
<svg version="1.1"
	 xmlns="http://www.w3.org/2000/svg" xmlns:xlink="http://www.w3.org/1999/xlink" xmlns:a="http://ns.adobe.com/AdobeSVGViewerExtensions/3.0/"
	 x="0px" y="0px" width="74px" height="74px" viewBox="0 0 74 74" style="overflow:scroll;enable-background:new 0 0 74 74;"
	 xml:space="preserve">
<style type="text/css">
	.st0{fill:#182B3D;}
</style>
<defs>
</defs>
<g>
	<path class="st0" d="M37,0C16.565,0,0,16.565,0,37c0,20.435,16.565,37,37,37c20.435,0,37-16.565,37-37C74,16.565,57.435,0,37,0z
		 M22.802,43.738h-1.868l-2.665-8.307l-0.585-2.404h-0.037l-0.561,2.404l-2.616,8.307h-1.88L8.68,30.262h2.304l2.279,8.618
		l0.336,1.868l0.038,0.013l0.411-1.88l2.715-8.618h1.868l2.715,8.618l0.436,2.043h0.038l0.423-2.043l2.179-8.618h2.292
		L22.802,43.738z M47.945,56.555c-0.624,0.624-1.685,0.557-2.323-0.085l-8.091-8.14c-0.173-0.174-0.464-0.136-0.587,0.076
		l-3.243,5.596c-0.168,0.289-0.602,0.229-0.684-0.095l-4.017-15.88c-0.064-0.251,0.164-0.479,0.415-0.415l0.755,0.191l-2.188-7.539
		h2.304l2.145,8.111l0.999,0.253l2.634-8.364h1.869l2.715,8.618l0.354,1.661l0.188,0.048l0.354-1.709l2.179-8.618h2.291
		L42.895,41.02l2.402,0.607c0.324,0.082,0.385,0.516,0.095,0.684l-5.596,3.243c-0.212,0.123-0.25,0.414-0.076,0.587l8.14,8.091
		C48.502,54.87,48.569,55.931,47.945,56.555z M61.41,43.738h-1.869l-2.665-8.307l-0.585-2.404h-0.037l-0.561,2.404l-2.615,8.307
		h-1.88l-3.91-13.475h2.304l2.279,8.618l0.336,1.868l0.037,0.013l0.411-1.88l2.715-8.618h1.868l2.715,8.618l0.436,2.043h0.037
		l0.424-2.043l2.179-8.618h2.291L61.41,43.738z"/>
	<polygon class="st0" points="36.987,33.027 36.95,33.027 36.39,35.431 35.239,39.084 39.054,40.049 37.573,35.431 	"/>
</g>
</svg>