<!-- Generator: Adobe Illustrator 21.1.0, SVG Export Plug-In  -->
<svg version="1.1"
	 xmlns="http://www.w3.org/2000/svg" xmlns:xlink="http://www.w3.org/1999/xlink" xmlns:a="http://ns.adobe.com/AdobeSVGViewerExtensions/3.0/"
	 x="0px" y="0px" width="74px" height="74px" viewBox="0 0 74 74" style="overflow:scroll;enable-background:new 0 0 74 74;"
	 xml:space="preserve">
<style type="text/css">
	.st0{fill:#182B3D;}
</style>
<defs>
</defs>
<g>
	<path class="st0" d="M44.912,23.453c-4.937-3.521-11.819-2.366-15.339,2.573c-3.52,4.939-2.366,11.818,2.573,15.339
		c4.939,3.518,11.82,2.365,15.339-2.573C51.006,33.852,49.852,26.973,44.912,23.453z M38.182,37.957
		c-0.125,0.394-0.349,0.664-0.675,0.811c-0.327,0.145-0.658,0.164-0.998,0.057c-0.344-0.109-0.61-0.315-0.796-0.62
		c-0.186-0.304-0.216-0.656-0.09-1.057c0.111-0.351,0.329-0.609,0.651-0.778c0.324-0.168,0.663-0.195,1.018-0.083
		c0.357,0.113,0.622,0.331,0.795,0.656C38.263,37.269,38.293,37.607,38.182,37.957z M41.219,28.356
		c-0.118,0.373-0.258,0.745-0.418,1.117l-1.685,4.063c-0.198,0.484-0.403,0.839-0.617,1.063c-0.214,0.225-0.471,0.29-0.77,0.196
		c-0.305-0.096-0.476-0.292-0.514-0.586c-0.037-0.296,0.002-0.713,0.118-1.255l1.013-4.145c0.198-0.807,0.352-1.382,0.461-1.727
		c0.149-0.47,0.388-0.796,0.715-0.981c0.329-0.185,0.695-0.214,1.096-0.087c0.485,0.154,0.756,0.425,0.815,0.812
		C41.49,27.214,41.419,27.723,41.219,28.356z"/>
	<path class="st0" d="M37,0C16.565,0,0,16.565,0,37c0,20.435,16.565,37,37,37c20.435,0,37-16.565,37-37C74,16.565,57.435,0,37,0z
		 M50.283,40.83c-4.479,6.288-13.092,7.921-19.542,3.847l-0.942,1.325c0.405,0.676,0.4,1.551-0.086,2.232l-4.977,6.984
		c-0.655,0.918-1.931,1.133-2.848,0.478c-0.919-0.653-1.133-1.929-0.478-2.848l4.977-6.984c0.487-0.681,1.313-0.971,2.083-0.811
		l0.943-1.323c-5.956-4.768-7.221-13.442-2.742-19.728c4.64-6.511,13.71-8.032,20.221-3.393
		C53.401,25.251,54.923,34.321,50.283,40.83z"/>
</g>
</svg>