<!-- Generator: Adobe Illustrator 21.1.0, SVG Export Plug-In  -->
<svg version="1.1"
	 xmlns="http://www.w3.org/2000/svg" xmlns:xlink="http://www.w3.org/1999/xlink" xmlns:a="http://ns.adobe.com/AdobeSVGViewerExtensions/3.0/"
	 x="0px" y="0px" width="74px" height="74px" viewBox="0 0 74 74" style="overflow:scroll;enable-background:new 0 0 74 74;"
	 xml:space="preserve">
<style type="text/css">
	.st0{fill:#182B3D;}
</style>
<defs>
</defs>
<g>
	<path class="st0" d="M37.079,37.811c-1.552,0-2.66,1.137-2.66,2.719c0,1.559,1.079,2.724,2.66,2.724
		c1.617,0,2.695-1.166,2.695-2.724C39.746,38.942,38.696,37.811,37.079,37.811z"/>
	<path class="st0" d="M37.502,22.436c-2.121,0-3.921,0.599-4.994,1.226l1.014,3.258c0.78-0.534,1.976-0.897,2.966-0.897
		c1.494,0.065,2.18,0.75,2.18,1.799c0,1.014-0.774,1.976-1.734,3.107c-1.343,1.623-1.853,3.176-1.764,4.698l0.028,0.78h3.98v-0.539
		c-0.03-1.348,0.415-2.514,1.522-3.739c1.137-1.254,2.544-2.754,2.544-5.027C43.244,24.617,41.45,22.436,37.502,22.436z"/>
	<path class="st0" d="M37,0C16.565,0,0,16.565,0,37c0,20.435,16.565,37,37,37c20.435,0,37-16.565,37-37C74,16.565,57.435,0,37,0z
		 M52.53,40.372c0,0-0.48,0.064-0.339,1.12l0.023,1.535c0,0-0.065,0.457-0.902,0.738c0,0-0.159,0.159,0.081,0.458
		c0,0,0.44,0.492-0.323,1.552c-0.281,0.393-0.732,0.879-0.456,1.875c0,0,0.363,1.927-0.399,2.391c0,0-0.861,1.019-4.325,0.591
		c-1.206-0.145-3.445-0.732-4.774,0.938c0,0-3.188,6.059-3.427,7.49c0,0-5.443-9.681-12.077-11.175c0,0,1.617-3.644-1.669-8.367
		c0,0-4.125-5.437-4.25-8.425c0,0-1.083-5.032,4.056-10.776c2.472-2.754,5.736-5.315,13.805-5.373
		c3.151-0.023,7.968,0.721,11.712,4.681c2.268,2.391,3.938,5.415,3.464,10.355c-0.105,1.066-1.635,2.308-0.563,4.377
		c0,0,2.308,4.066,2.232,4.746C54.399,39.101,54.441,40.337,52.53,40.372z"/>
</g>
</svg>